# xmcd
#
# Track frame offsets:
#	150
#	21467
#	41220
#	62120
#	81907
#	110130
#	132442
#	158742
#	179472
#	203602
#
# Disc length: 2906 seconds
#
# Revision: 0
# Processed by: cddbd v1.5.2PL0 Copyright (c) Steve Scherf et al.
# Submitted via: audiograbber 1.83.01
#
DISCID=900b580a
DTITLE=Carol Noonan Band - The Only Witness
DYEAR=1997
DGENRE=Folk-Rock
TTITLE0=Don't Be Afraid
TTITLE1=Emery Lane
TTITLE2=Steadfast
TTITLE3=Taillights Fade
TTITLE4=Queen Jane
TTITLE5=Not Coming Home
TTITLE6=Under My Eyes
TTITLE7=Break Her Heart
TTITLE8=The Only Witness
TTITLE9=Unknown Thing
EXTD=
EXTT0=
EXTT1=
EXTT2=
EXTT3=
EXTT4=
EXTT5=
EXTT6=
EXTT7=
EXTT8=
EXTT9=
PLAYORDER=
